%TF.GenerationSoftware,KiCad,Pcbnew,10.0.4-1.fc44*%
%TF.CreationDate,2026-07-29T22:02:28+05:30*%
%TF.ProjectId,BME280-env-sensor-breakout-module,424d4532-3830-42d6-956e-762d73656e73,V1.0*%
%TF.SameCoordinates,Original*%
%TF.FileFunction,Legend,Top*%
%TF.FilePolarity,Positive*%
%FSLAX46Y46*%
G04 Gerber Fmt 4.6, Leading zero omitted, Abs format (unit mm)*
G04 Created by KiCad (PCBNEW 10.0.4-1.fc44) date 2026-07-29 22:02:28*
%MOMM*%
%LPD*%
G01*
G04 APERTURE LIST*
%ADD10C,0.150000*%
%ADD11C,0.120000*%
%ADD12C,0.127000*%
%ADD13C,0.200000*%
G04 APERTURE END LIST*
D10*
X147846303Y-101194295D02*
X147579636Y-100813342D01*
X147389160Y-101194295D02*
X147389160Y-100394295D01*
X147389160Y-100394295D02*
X147693922Y-100394295D01*
X147693922Y-100394295D02*
X147770112Y-100432390D01*
X147770112Y-100432390D02*
X147808207Y-100470485D01*
X147808207Y-100470485D02*
X147846303Y-100546676D01*
X147846303Y-100546676D02*
X147846303Y-100660961D01*
X147846303Y-100660961D02*
X147808207Y-100737152D01*
X147808207Y-100737152D02*
X147770112Y-100775247D01*
X147770112Y-100775247D02*
X147693922Y-100813342D01*
X147693922Y-100813342D02*
X147389160Y-100813342D01*
X148151064Y-100470485D02*
X148189160Y-100432390D01*
X148189160Y-100432390D02*
X148265350Y-100394295D01*
X148265350Y-100394295D02*
X148455826Y-100394295D01*
X148455826Y-100394295D02*
X148532017Y-100432390D01*
X148532017Y-100432390D02*
X148570112Y-100470485D01*
X148570112Y-100470485D02*
X148608207Y-100546676D01*
X148608207Y-100546676D02*
X148608207Y-100622866D01*
X148608207Y-100622866D02*
X148570112Y-100737152D01*
X148570112Y-100737152D02*
X148112969Y-101194295D01*
X148112969Y-101194295D02*
X148608207Y-101194295D01*
X149646303Y-101118104D02*
X149608207Y-101156200D01*
X149608207Y-101156200D02*
X149493922Y-101194295D01*
X149493922Y-101194295D02*
X149417731Y-101194295D01*
X149417731Y-101194295D02*
X149303445Y-101156200D01*
X149303445Y-101156200D02*
X149227255Y-101080009D01*
X149227255Y-101080009D02*
X149189160Y-101003819D01*
X149189160Y-101003819D02*
X149151064Y-100851438D01*
X149151064Y-100851438D02*
X149151064Y-100737152D01*
X149151064Y-100737152D02*
X149189160Y-100584771D01*
X149189160Y-100584771D02*
X149227255Y-100508580D01*
X149227255Y-100508580D02*
X149303445Y-100432390D01*
X149303445Y-100432390D02*
X149417731Y-100394295D01*
X149417731Y-100394295D02*
X149493922Y-100394295D01*
X149493922Y-100394295D02*
X149608207Y-100432390D01*
X149608207Y-100432390D02*
X149646303Y-100470485D01*
X149951064Y-100470485D02*
X149989160Y-100432390D01*
X149989160Y-100432390D02*
X150065350Y-100394295D01*
X150065350Y-100394295D02*
X150255826Y-100394295D01*
X150255826Y-100394295D02*
X150332017Y-100432390D01*
X150332017Y-100432390D02*
X150370112Y-100470485D01*
X150370112Y-100470485D02*
X150408207Y-100546676D01*
X150408207Y-100546676D02*
X150408207Y-100622866D01*
X150408207Y-100622866D02*
X150370112Y-100737152D01*
X150370112Y-100737152D02*
X149912969Y-101194295D01*
X149912969Y-101194295D02*
X150408207Y-101194295D01*
X154846303Y-101118104D02*
X154808207Y-101156200D01*
X154808207Y-101156200D02*
X154693922Y-101194295D01*
X154693922Y-101194295D02*
X154617731Y-101194295D01*
X154617731Y-101194295D02*
X154503445Y-101156200D01*
X154503445Y-101156200D02*
X154427255Y-101080009D01*
X154427255Y-101080009D02*
X154389160Y-101003819D01*
X154389160Y-101003819D02*
X154351064Y-100851438D01*
X154351064Y-100851438D02*
X154351064Y-100737152D01*
X154351064Y-100737152D02*
X154389160Y-100584771D01*
X154389160Y-100584771D02*
X154427255Y-100508580D01*
X154427255Y-100508580D02*
X154503445Y-100432390D01*
X154503445Y-100432390D02*
X154617731Y-100394295D01*
X154617731Y-100394295D02*
X154693922Y-100394295D01*
X154693922Y-100394295D02*
X154808207Y-100432390D01*
X154808207Y-100432390D02*
X154846303Y-100470485D01*
X155608207Y-101194295D02*
X155151064Y-101194295D01*
X155379636Y-101194295D02*
X155379636Y-100394295D01*
X155379636Y-100394295D02*
X155303445Y-100508580D01*
X155303445Y-100508580D02*
X155227255Y-100584771D01*
X155227255Y-100584771D02*
X155151064Y-100622866D01*
X156646303Y-101194295D02*
X156379636Y-100813342D01*
X156189160Y-101194295D02*
X156189160Y-100394295D01*
X156189160Y-100394295D02*
X156493922Y-100394295D01*
X156493922Y-100394295D02*
X156570112Y-100432390D01*
X156570112Y-100432390D02*
X156608207Y-100470485D01*
X156608207Y-100470485D02*
X156646303Y-100546676D01*
X156646303Y-100546676D02*
X156646303Y-100660961D01*
X156646303Y-100660961D02*
X156608207Y-100737152D01*
X156608207Y-100737152D02*
X156570112Y-100775247D01*
X156570112Y-100775247D02*
X156493922Y-100813342D01*
X156493922Y-100813342D02*
X156189160Y-100813342D01*
X157408207Y-101194295D02*
X156951064Y-101194295D01*
X157179636Y-101194295D02*
X157179636Y-100394295D01*
X157179636Y-100394295D02*
X157103445Y-100508580D01*
X157103445Y-100508580D02*
X157027255Y-100584771D01*
X157027255Y-100584771D02*
X156951064Y-100622866D01*
X152890476Y-105062295D02*
X152890476Y-105709914D01*
X152890476Y-105709914D02*
X152928571Y-105786104D01*
X152928571Y-105786104D02*
X152966666Y-105824200D01*
X152966666Y-105824200D02*
X153042857Y-105862295D01*
X153042857Y-105862295D02*
X153195238Y-105862295D01*
X153195238Y-105862295D02*
X153271428Y-105824200D01*
X153271428Y-105824200D02*
X153309523Y-105786104D01*
X153309523Y-105786104D02*
X153347619Y-105709914D01*
X153347619Y-105709914D02*
X153347619Y-105062295D01*
X154147618Y-105862295D02*
X153690475Y-105862295D01*
X153919047Y-105862295D02*
X153919047Y-105062295D01*
X153919047Y-105062295D02*
X153842856Y-105176580D01*
X153842856Y-105176580D02*
X153766666Y-105252771D01*
X153766666Y-105252771D02*
X153690475Y-105290866D01*
%TO.C,R1*%
D11*
X156277500Y-102795276D02*
X156277500Y-103304724D01*
X157322500Y-102795276D02*
X157322500Y-103304724D01*
%TO.C,J1*%
X147170000Y-99680000D02*
X147170000Y-98300000D01*
X148550000Y-99680000D02*
X147170000Y-99680000D01*
X149820000Y-96920000D02*
X157550000Y-96920000D01*
X149820000Y-99680000D02*
X149820000Y-96920000D01*
X149820000Y-99680000D02*
X157550000Y-99680000D01*
X157550000Y-99680000D02*
X157550000Y-96920000D01*
%TO.C,R2*%
X147527500Y-102795276D02*
X147527500Y-103304724D01*
X148572500Y-102795276D02*
X148572500Y-103304724D01*
%TO.C,C1*%
X154540000Y-102903733D02*
X154540000Y-103196267D01*
X155560000Y-102903733D02*
X155560000Y-103196267D01*
%TO.C,C2*%
X149290000Y-102903733D02*
X149290000Y-103196267D01*
X150310000Y-102903733D02*
X150310000Y-103196267D01*
%TO.C,U1*%
D12*
X151125000Y-101750000D02*
X151125000Y-104350000D01*
X153895000Y-101750000D02*
X153895000Y-104350000D01*
D13*
X153560000Y-104650000D02*
G75*
G02*
X153460000Y-104650000I-50000J0D01*
G01*
X153460000Y-104650000D02*
G75*
G02*
X153560000Y-104650000I50000J0D01*
G01*
%TD*%
M02*
