%TF.GenerationSoftware,KiCad,Pcbnew,10.0.4-1.fc44*%
%TF.CreationDate,2026-07-29T22:02:27+05:30*%
%TF.ProjectId,BME280-env-sensor-breakout-module,424d4532-3830-42d6-956e-762d73656e73,V1.0*%
%TF.SameCoordinates,Original*%
%TF.FileFunction,Copper,L1,Top*%
%TF.FilePolarity,Positive*%
%FSLAX46Y46*%
G04 Gerber Fmt 4.6, Leading zero omitted, Abs format (unit mm)*
G04 Created by KiCad (PCBNEW 10.0.4-1.fc44) date 2026-07-29 22:02:27*
%MOMM*%
%LPD*%
G01*
G04 APERTURE LIST*
G04 Aperture macros list*
%AMRoundRect*
0 Rectangle with rounded corners*
0 $1 Rounding radius*
0 $2 $3 $4 $5 $6 $7 $8 $9 X,Y pos of 4 corners*
0 Add a 4 corners polygon primitive as box body*
4,1,4,$2,$3,$4,$5,$6,$7,$8,$9,$2,$3,0*
0 Add four circle primitives for the rounded corners*
1,1,$1+$1,$2,$3*
1,1,$1+$1,$4,$5*
1,1,$1+$1,$6,$7*
1,1,$1+$1,$8,$9*
0 Add four rect primitives between the rounded corners*
20,1,$1+$1,$2,$3,$4,$5,0*
20,1,$1+$1,$4,$5,$6,$7,0*
20,1,$1+$1,$6,$7,$8,$9,0*
20,1,$1+$1,$8,$9,$2,$3,0*%
G04 Aperture macros list end*
%TA.AperFunction,SMDPad,CuDef*%
%ADD10RoundRect,0.237500X-0.237500X0.250000X-0.237500X-0.250000X0.237500X-0.250000X0.237500X0.250000X0*%
%TD*%
%TA.AperFunction,ComponentPad*%
%ADD11R,1.700000X1.700000*%
%TD*%
%TA.AperFunction,ComponentPad*%
%ADD12C,1.700000*%
%TD*%
%TA.AperFunction,SMDPad,CuDef*%
%ADD13RoundRect,0.237500X-0.237500X0.300000X-0.237500X-0.300000X0.237500X-0.300000X0.237500X0.300000X0*%
%TD*%
%TA.AperFunction,SMDPad,CuDef*%
%ADD14RoundRect,0.056250X-0.168750X0.188750X-0.168750X-0.188750X0.168750X-0.188750X0.168750X0.188750X0*%
%TD*%
%TA.AperFunction,ViaPad*%
%ADD15C,0.600000*%
%TD*%
%TA.AperFunction,Conductor*%
%ADD16C,0.300000*%
%TD*%
G04 APERTURE END LIST*
D10*
%TO.P,R1,1*%
%TO.N,+3.3V*%
X156800000Y-102137500D03*
%TO.P,R1,2*%
%TO.N,/SDA*%
X156800000Y-103962500D03*
%TD*%
D11*
%TO.P,J1,1,Pin_1_1*%
%TO.N,+3.3V*%
X148550000Y-98300000D03*
D12*
%TO.P,J1,2,Pin_2_2*%
%TO.N,/SCK*%
X151090000Y-98300000D03*
%TO.P,J1,3,Pin_3_3*%
%TO.N,GND*%
X153630000Y-98300000D03*
%TO.P,J1,4,Pin_4_4*%
%TO.N,/SDA*%
X156170000Y-98300000D03*
%TD*%
D10*
%TO.P,R2,1*%
%TO.N,+3.3V*%
X148050000Y-102137500D03*
%TO.P,R2,2*%
%TO.N,/SCK*%
X148050000Y-103962500D03*
%TD*%
D13*
%TO.P,C1,1*%
%TO.N,+3.3V*%
X155050000Y-102187500D03*
%TO.P,C1,2*%
%TO.N,GND*%
X155050000Y-103912500D03*
%TD*%
%TO.P,C2,1*%
%TO.N,+3.3V*%
X149800000Y-102187500D03*
%TO.P,C2,2*%
%TO.N,GND*%
X149800000Y-103912500D03*
%TD*%
D14*
%TO.P,U1,1,GND_1*%
%TO.N,GND*%
X153485000Y-104020000D03*
%TO.P,U1,2,CSB_2*%
%TO.N,+3.3V*%
X152835000Y-104020000D03*
%TO.P,U1,3,SDI_3*%
%TO.N,/SDA*%
X152185000Y-104020000D03*
%TO.P,U1,4,SCK_4*%
%TO.N,/SCK*%
X151535000Y-104020000D03*
%TO.P,U1,5,SDO_5*%
%TO.N,+3.3V*%
X151535000Y-102080000D03*
%TO.P,U1,6,VDDIO_6*%
X152185000Y-102080000D03*
%TO.P,U1,7,GND_7*%
%TO.N,GND*%
X152835000Y-102080000D03*
%TO.P,U1,8,VDD_8*%
%TO.N,+3.3V*%
X153485000Y-102080000D03*
%TD*%
D15*
%TO.N,GND*%
X155050000Y-104900000D03*
X153748180Y-103121060D03*
X152835000Y-101235000D03*
X149800000Y-104900000D03*
%TO.N,/SCK*%
X151050000Y-99900000D03*
X151050000Y-103100000D03*
%TO.N,/SDA*%
X151951520Y-103062281D03*
X155050000Y-99900000D03*
%TD*%
%TO.N,GND*%
D16*
X149800000Y-103912500D02*
X149800000Y-104900000D01*
X155050000Y-103912500D02*
X155050000Y-104900000D01*
X153748180Y-103121060D02*
X153485000Y-103384240D01*
X152800000Y-101270000D02*
X152835000Y-101235000D01*
X153485000Y-103384240D02*
X153485000Y-104020000D01*
X152835000Y-101235000D02*
X152835000Y-102080000D01*
X152800000Y-101300000D02*
X152800000Y-101270000D01*
%TO.N,+3.3V*%
X153485000Y-102465000D02*
X153485000Y-102080000D01*
X149300000Y-100550000D02*
X149800000Y-100550000D01*
X152835000Y-103115000D02*
X153485000Y-102465000D01*
X153485000Y-102080000D02*
X154942500Y-102080000D01*
X148550000Y-98300000D02*
X148550000Y-99800000D01*
X156800000Y-101300000D02*
X156050000Y-100550000D01*
X149800000Y-102187500D02*
X149800000Y-100550000D01*
X156800000Y-102137500D02*
X156800000Y-101300000D01*
X148550000Y-99800000D02*
X149300000Y-100550000D01*
X155050000Y-100550000D02*
X154800000Y-100550000D01*
X156050000Y-100550000D02*
X155050000Y-100550000D01*
X148050000Y-102137500D02*
X149750000Y-102137500D01*
X149800000Y-100550000D02*
X150050000Y-100550000D01*
X152835000Y-104020000D02*
X152835000Y-103115000D01*
X155050000Y-102187500D02*
X155050000Y-100550000D01*
X150050000Y-100550000D02*
X154800000Y-100550000D01*
X152185000Y-102080000D02*
X151535000Y-102080000D01*
X151535000Y-102080000D02*
X149907500Y-102080000D01*
%TO.N,/SCK*%
X148800000Y-105550000D02*
X148050000Y-104800000D01*
X151535000Y-104020000D02*
X151535000Y-105065000D01*
X151050000Y-99900000D02*
X151050000Y-98340000D01*
X148050000Y-103962500D02*
X148050000Y-104800000D01*
X151050000Y-105550000D02*
X148800000Y-105550000D01*
X151050000Y-99900000D02*
X151090000Y-99860000D01*
X151535000Y-103565000D02*
X151535000Y-104020000D01*
X151535000Y-105065000D02*
X151050000Y-105550000D01*
X151250000Y-103300000D02*
X151270000Y-103300000D01*
X151270000Y-103300000D02*
X151535000Y-103565000D01*
X151050000Y-98340000D02*
X151090000Y-98300000D01*
X151050000Y-103100000D02*
X151250000Y-103300000D01*
%TO.N,/SDA*%
X155300000Y-99650000D02*
X155950000Y-99650000D01*
X151951520Y-103062281D02*
X151882347Y-102993108D01*
X152550000Y-105550000D02*
X156300000Y-105550000D01*
X151800000Y-103050000D02*
X152185000Y-103435000D01*
X156800000Y-105050000D02*
X156800000Y-103962500D01*
X156170000Y-99430000D02*
X156170000Y-98300000D01*
X156300000Y-105550000D02*
X156800000Y-105050000D01*
X151856892Y-102993108D02*
X151800000Y-103050000D01*
X152185000Y-104020000D02*
X152200000Y-104005000D01*
X152185000Y-104020000D02*
X152185000Y-105185000D01*
X151882347Y-102993108D02*
X151856892Y-102993108D01*
X152185000Y-103435000D02*
X152185000Y-104020000D01*
X152185000Y-105185000D02*
X152550000Y-105550000D01*
X155050000Y-99900000D02*
X155300000Y-99650000D01*
X155950000Y-99650000D02*
X156170000Y-99430000D01*
%TD*%
M02*
